<svg width="169" height="76" viewBox="0 0 169 76" fill="none" xmlns="http://www.w3.org/2000/svg">
<circle r="2.35417" transform="matrix(1 0 0 -1 2.35417 2.35409)" fill="#C4C4C4"/>
<circle r="2.35417" transform="matrix(1 0 0 -1 2.35417 49.4375)" fill="#C4C4C4"/>
<circle r="2.35417" transform="matrix(1 0 0 -1 2.35417 25.8958)" fill="#C4C4C4"/>
<circle r="2.35417" transform="matrix(1 0 0 -1 2.35417 72.9791)" fill="#C4C4C4"/>
<circle r="2.35417" transform="matrix(1 0 0 -1 96.5208 2.35409)" fill="#C4C4C4"/>
<circle r="2.35417" transform="matrix(1 0 0 -1 96.5208 49.4375)" fill="#C4C4C4"/>
<circle r="2.35417" transform="matrix(1 0 0 -1 96.5208 25.8958)" fill="#C4C4C4"/>
<circle r="2.35417" transform="matrix(1 0 0 -1 96.5208 72.9791)" fill="#C4C4C4"/>
<circle r="2.35417" transform="matrix(1 0 0 -1 49.4374 2.35409)" fill="#C4C4C4"/>
<circle r="2.35417" transform="matrix(1 0 0 -1 49.4374 49.4375)" fill="#C4C4C4"/>
<circle r="2.35417" transform="matrix(1 0 0 -1 49.4374 25.8958)" fill="#C4C4C4"/>
<circle r="2.35417" transform="matrix(1 0 0 -1 49.4374 72.9791)" fill="#C4C4C4"/>
<circle r="2.35417" transform="matrix(1 0 0 -1 143.604 2.35409)" fill="#C4C4C4"/>
<circle r="2.35417" transform="matrix(1 0 0 -1 143.604 49.4375)" fill="#C4C4C4"/>
<circle r="2.35417" transform="matrix(1 0 0 -1 143.604 25.8958)" fill="#C4C4C4"/>
<circle r="2.35417" transform="matrix(1 0 0 -1 143.604 72.9791)" fill="#C4C4C4"/>
<circle r="2.35417" transform="matrix(1 0 0 -1 25.8958 2.35409)" fill="#C4C4C4"/>
<circle r="2.35417" transform="matrix(1 0 0 -1 25.8958 49.4375)" fill="#C4C4C4"/>
<circle r="2.35417" transform="matrix(1 0 0 -1 25.8958 25.8958)" fill="#C4C4C4"/>
<circle r="2.35417" transform="matrix(1 0 0 -1 25.8958 72.9791)" fill="#C4C4C4"/>
<circle r="2.35417" transform="matrix(1 0 0 -1 120.062 2.35409)" fill="#C4C4C4"/>
<circle r="2.35417" transform="matrix(1 0 0 -1 120.062 49.4375)" fill="#C4C4C4"/>
<circle r="2.35417" transform="matrix(1 0 0 -1 120.062 25.8958)" fill="#C4C4C4"/>
<circle r="2.35417" transform="matrix(1 0 0 -1 120.062 72.9791)" fill="#C4C4C4"/>
<circle r="2.35417" transform="matrix(1 0 0 -1 72.9792 2.35409)" fill="#C4C4C4"/>
<circle r="2.35417" transform="matrix(1 0 0 -1 72.9792 49.4375)" fill="#C4C4C4"/>
<circle r="2.35417" transform="matrix(1 0 0 -1 72.9792 25.8958)" fill="#C4C4C4"/>
<circle r="2.35417" transform="matrix(1 0 0 -1 72.9792 72.9791)" fill="#C4C4C4"/>
<circle r="2.35417" transform="matrix(1 0 0 -1 167.146 2.35409)" fill="#C4C4C4"/>
<circle r="2.35417" transform="matrix(1 0 0 -1 167.146 49.4375)" fill="#C4C4C4"/>
<circle r="2.35417" transform="matrix(1 0 0 -1 167.146 25.8958)" fill="#C4C4C4"/>
<circle r="2.35417" transform="matrix(1 0 0 -1 167.146 72.9791)" fill="#C4C4C4"/>
</svg>
